<?xml version="1.0" encoding="utf-8"?>
<!-- Generator: Adobe Illustrator 15.0.0, SVG Export Plug-In . SVG Version: 6.00 Build 0)  -->
<!DOCTYPE svg PUBLIC "-//W3C//DTD SVG 1.1//EN" "http://www.w3.org/Graphics/SVG/1.1/DTD/svg11.dtd">
<svg version="1.1" id="Layer_1" xmlns="http://www.w3.org/2000/svg" xmlns:xlink="http://www.w3.org/1999/xlink" x="0px" y="0px"
	 width="84.151px" height="59.149px" viewBox="99.999 50 84.151 59.149" enable-background="new 99.999 50 84.151 59.149"
	 xml:space="preserve">
<polygon fill="#FFFFFF" points="133.3,91.4 133.3,67.75 156,79.6 "/>
<path fill="#FF0000" d="M184.15,76.4v6.35c0,2.833-0.15,5.967-0.45,9.4c-0.134,1.699-0.267,3.117-0.4,4.25l-0.148,0.949
	c-0.168,0.768-0.367,1.518-0.602,2.25c-0.667,2.366-1.531,4.084-2.6,5.149c-1.367,1.4-2.968,2.383-4.8,2.95
	c-0.633,0.2-1.316,0.333-2.051,0.399c-0.768,0.101-1.301,0.168-1.601,0.199c-4.899,0.367-11.283,0.617-19.149,0.75
	c-2.435,0.034-4.884,0.067-7.351,0.102h-2.95c-3.633-0.033-7.55-0.084-11.75-0.15c-8.433-0.167-14.05-0.383-16.85-0.649
	c-0.067-0.033-0.667-0.117-1.8-0.25c-0.9-0.134-1.684-0.283-2.351-0.449c-2.065-0.533-3.782-1.5-5.149-2.9
	c-1.033-1.065-1.9-2.783-2.601-5.149c-0.232-0.732-0.417-1.482-0.55-2.25l-0.2-0.949c-0.133-1.133-0.267-2.551-0.399-4.25
	c-0.268-3.435-0.4-6.567-0.4-9.4V76.4c0-2.833,0.133-5.95,0.4-9.351l0.399-4.25c0.167-0.966,0.417-2.05,0.75-3.25
	c0.7-2.333,1.567-4.032,2.601-5.1c1.367-1.434,2.967-2.434,4.8-3c0.633-0.167,1.333-0.3,2.1-0.4c0.4-0.065,0.917-0.133,1.551-0.199
	c4.899-0.333,11.282-0.567,19.149-0.7c3.9-0.101,7.333-0.15,10.3-0.15l2.95,0.05c2.467,0,4.935,0.034,7.4,0.101
	c7.832,0.133,14.199,0.367,19.1,0.7c0.3,0.032,0.833,0.1,1.601,0.199c0.732,0.101,1.418,0.233,2.051,0.4
	c1.832,0.566,3.434,1.566,4.8,3c1.065,1.066,1.933,2.767,2.6,5.1c0.367,1.2,0.617,2.284,0.75,3.25l0.4,4.25
	C184,70.45,184.15,73.567,184.15,76.4z M133.3,91.4L156,79.6L133.3,67.75V91.4z"/>
</svg>
